# 3ds Max Wavefront OBJ Exporter v0.97b - (c)2007 guruware
# File Created: 11.01.2019 17:38:23

mtllib pushable.mtl

#
# object Box001
#

v  -10.0000 0.0000 10.0000
v  -10.0000 0.0000 3.3333
v  -3.3333 0.0000 3.3333
v  -3.3333 0.0000 10.0000
v  3.3333 0.0000 3.3333
v  3.3333 0.0000 10.0000
v  10.0000 0.0000 3.3333
v  10.0000 0.0000 10.0000
v  -10.0000 0.0000 -3.3333
v  -3.3333 0.0000 -3.3333
v  -3.3333 3.0000 3.3333
v  -3.3333 3.0000 -3.3333
v  3.3333 3.0000 -3.3333
v  3.3333 3.0000 3.3333
v  3.3333 0.0000 -3.3333
v  10.0000 0.0000 -3.3333
v  -10.0000 0.0000 -10.0000
v  -3.3333 0.0000 -10.0000
v  3.3333 0.0000 -10.0000
v  10.0000 0.0000 -10.0000
v  -10.0000 20.0000 10.0000
v  -3.3333 20.0000 10.0000
v  -3.3333 20.0000 3.3333
v  -10.0000 20.0000 3.3333
v  3.3333 20.0000 10.0000
v  3.3333 20.0000 3.3333
v  10.0000 20.0000 10.0000
v  10.0000 20.0000 3.3333
v  -3.3333 20.0000 -3.3333
v  -10.0000 20.0000 -3.3333
v  -3.3333 17.0000 3.3333
v  3.3333 17.0000 3.3333
v  3.3333 17.0000 -3.3333
v  -3.3333 17.0000 -3.3333
v  10.0000 20.0000 -3.3333
v  3.3333 20.0000 -3.3333
v  -3.3333 20.0000 -10.0000
v  -10.0000 20.0000 -10.0000
v  3.3333 20.0000 -10.0000
v  10.0000 20.0000 -10.0000
v  -3.3333 6.6667 10.0000
v  -10.0000 6.6667 10.0000
v  3.3333 6.6667 10.0000
v  10.0000 6.6667 10.0000
v  -3.3333 13.3333 10.0000
v  -10.0000 13.3333 10.0000
v  -3.3333 6.6667 7.0000
v  3.3333 6.6667 7.0000
v  3.3333 13.3333 7.0000
v  -3.3333 13.3333 7.0000
v  10.0000 13.3333 10.0000
v  3.3333 13.3333 10.0000
v  10.0000 6.6667 3.3333
v  10.0000 6.6667 -3.3333
v  10.0000 6.6667 -10.0000
v  10.0000 13.3333 3.3333
v  7.0000 6.6667 3.3333
v  7.0000 6.6667 -3.3333
v  7.0000 13.3333 -3.3333
v  7.0000 13.3333 3.3333
v  10.0000 13.3333 -10.0000
v  10.0000 13.3333 -3.3333
v  3.3333 6.6667 -10.0000
v  -3.3333 6.6667 -10.0000
v  -10.0000 6.6667 -10.0000
v  3.3333 13.3333 -10.0000
v  3.3333 6.6667 -7.0000
v  -3.3333 6.6667 -7.0000
v  -3.3333 13.3333 -7.0000
v  3.3333 13.3333 -7.0000
v  -10.0000 13.3333 -10.0000
v  -3.3333 13.3333 -10.0000
v  -10.0000 6.6667 -3.3333
v  -10.0000 6.6667 3.3333
v  -10.0000 13.3333 -3.3333
v  -7.0000 6.6667 -3.3333
v  -7.0000 6.6667 3.3333
v  -7.0000 13.3333 3.3333
v  -7.0000 13.3333 -3.3333
v  -10.0000 13.3333 3.3333
# 80 vertices

vn 0.0000 -1.0000 -0.0000
vn 0.0000 1.0000 -0.0000
vn 0.0000 0.0000 1.0000
vn 1.0000 0.0000 -0.0000
vn 0.0000 0.0000 -1.0000
vn -1.0000 0.0000 -0.0000
# 6 vertex normals

vt 1.0000 0.0000 0.0000
vt 1.0000 0.3333 0.0000
vt 0.6667 0.3333 0.0000
vt 0.6667 0.0000 0.0000
vt 0.3333 0.3333 0.0000
vt 0.3333 0.0000 0.0000
vt -0.0000 0.3333 0.0000
vt -0.0000 0.0000 0.0000
vt 1.0000 0.6667 0.0000
vt 0.6667 0.6667 0.0000
vt 0.3333 0.6667 0.0000
vt -0.0000 0.6667 0.0000
vt 1.0000 1.0000 0.0000
vt 0.6667 1.0000 0.0000
vt 0.3333 1.0000 0.0000
vt -0.0000 1.0000 0.0000
vt 0.0000 0.0000 0.0000
vt 0.0000 0.3333 0.0000
vt 0.0000 0.6667 0.0000
vt 0.0000 1.0000 0.0000
# 20 texture coords

o Box001
g Box001
usemtl wire_140088225
f 1/1/1 2/2/1 3/3/1 
f 3/3/1 4/4/1 1/1/1 
f 4/4/1 3/3/1 5/5/1 
f 5/5/1 6/6/1 4/4/1 
f 6/6/1 5/5/1 7/7/1 
f 7/7/1 8/8/1 6/6/1 
f 2/2/1 9/9/1 10/10/1 
f 10/10/1 3/3/1 2/2/1 
f 11/3/1 12/10/1 13/11/1 
f 13/11/1 14/5/1 11/3/1 
f 5/5/1 15/11/1 16/12/1 
f 16/12/1 7/7/1 5/5/1 
f 9/9/1 17/13/1 18/14/1 
f 18/14/1 10/10/1 9/9/1 
f 10/10/1 18/14/1 19/15/1 
f 19/15/1 15/11/1 10/10/1 
f 15/11/1 19/15/1 20/16/1 
f 20/16/1 16/12/1 15/11/1 
f 21/17/2 22/6/2 23/5/2 
f 23/5/2 24/18/2 21/17/2 
f 22/6/2 25/4/2 26/3/2 
f 26/3/2 23/5/2 22/6/2 
f 25/4/2 27/1/2 28/2/2 
f 28/2/2 26/3/2 25/4/2 
f 24/18/2 23/5/2 29/11/2 
f 29/11/2 30/19/2 24/18/2 
f 31/5/2 32/3/2 33/10/2 
f 33/10/2 34/11/2 31/5/2 
f 26/3/2 28/2/2 35/9/2 
f 35/9/2 36/10/2 26/3/2 
f 30/19/2 29/11/2 37/15/2 
f 37/15/2 38/20/2 30/19/2 
f 29/11/2 36/10/2 39/14/2 
f 39/14/2 37/15/2 29/11/2 
f 36/10/2 35/9/2 40/13/2 
f 40/13/2 39/14/2 36/10/2 
f 1/17/3 4/6/3 41/5/3 
f 41/5/3 42/18/3 1/17/3 
f 4/6/3 6/4/3 43/3/3 
f 43/3/3 41/5/3 4/6/3 
f 6/4/3 8/1/3 44/2/3 
f 44/2/3 43/3/3 6/4/3 
f 42/18/3 41/5/3 45/11/3 
f 45/11/3 46/19/3 42/18/3 
f 47/5/3 48/3/3 49/10/3 
f 49/10/3 50/11/3 47/5/3 
f 43/3/3 44/2/3 51/9/3 
f 51/9/3 52/10/3 43/3/3 
f 46/19/3 45/11/3 22/15/3 
f 22/15/3 21/20/3 46/19/3 
f 45/11/3 52/10/3 25/14/3 
f 25/14/3 22/15/3 45/11/3 
f 52/10/3 51/9/3 27/13/3 
f 27/13/3 25/14/3 52/10/3 
f 8/17/4 7/6/4 53/5/4 
f 53/5/4 44/18/4 8/17/4 
f 7/6/4 16/4/4 54/3/4 
f 54/3/4 53/5/4 7/6/4 
f 16/4/4 20/1/4 55/2/4 
f 55/2/4 54/3/4 16/4/4 
f 44/18/4 53/5/4 56/11/4 
f 56/11/4 51/19/4 44/18/4 
f 57/5/4 58/3/4 59/10/4 
f 59/10/4 60/11/4 57/5/4 
f 54/3/4 55/2/4 61/9/4 
f 61/9/4 62/10/4 54/3/4 
f 51/19/4 56/11/4 28/15/4 
f 28/15/4 27/20/4 51/19/4 
f 56/11/4 62/10/4 35/14/4 
f 35/14/4 28/15/4 56/11/4 
f 62/10/4 61/9/4 40/13/4 
f 40/13/4 35/14/4 62/10/4 
f 20/17/5 19/6/5 63/5/5 
f 63/5/5 55/18/5 20/17/5 
f 19/6/5 18/4/5 64/3/5 
f 64/3/5 63/5/5 19/6/5 
f 18/4/5 17/1/5 65/2/5 
f 65/2/5 64/3/5 18/4/5 
f 55/18/5 63/5/5 66/11/5 
f 66/11/5 61/19/5 55/18/5 
f 67/5/5 68/3/5 69/10/5 
f 69/10/5 70/11/5 67/5/5 
f 64/3/5 65/2/5 71/9/5 
f 71/9/5 72/10/5 64/3/5 
f 61/19/5 66/11/5 39/15/5 
f 39/15/5 40/20/5 61/19/5 
f 66/11/5 72/10/5 37/14/5 
f 37/14/5 39/15/5 66/11/5 
f 72/10/5 71/9/5 38/13/5 
f 38/13/5 37/14/5 72/10/5 
f 17/17/6 9/6/6 73/5/6 
f 73/5/6 65/18/6 17/17/6 
f 9/6/6 2/4/6 74/3/6 
f 74/3/6 73/5/6 9/6/6 
f 2/4/6 1/1/6 42/2/6 
f 42/2/6 74/3/6 2/4/6 
f 65/18/6 73/5/6 75/11/6 
f 75/11/6 71/19/6 65/18/6 
f 76/5/6 77/3/6 78/10/6 
f 78/10/6 79/11/6 76/5/6 
f 74/3/6 42/2/6 46/9/6 
f 46/9/6 80/10/6 74/3/6 
f 71/19/6 75/11/6 30/15/6 
f 30/15/6 38/20/6 71/19/6 
f 75/11/6 80/10/6 24/14/6 
f 24/14/6 30/15/6 75/11/6 
f 80/10/6 46/9/6 21/13/6 
f 21/13/6 24/14/6 80/10/6 
f 5/5/5 3/3/5 11/3/5 
f 11/3/5 14/5/5 5/5/5 
f 3/3/4 10/10/4 12/10/4 
f 12/10/4 11/3/4 3/3/4 
f 10/10/3 15/11/3 13/11/3 
f 13/11/3 12/10/3 10/10/3 
f 15/11/6 5/5/6 14/5/6 
f 14/5/6 13/11/6 15/11/6 
f 23/5/5 26/3/5 32/3/5 
f 32/3/5 31/5/5 23/5/5 
f 26/3/6 36/10/6 33/10/6 
f 33/10/6 32/3/6 26/3/6 
f 36/10/3 29/11/3 34/11/3 
f 34/11/3 33/10/3 36/10/3 
f 29/11/4 23/5/4 31/5/4 
f 31/5/4 34/11/4 29/11/4 
f 41/5/2 43/3/2 48/3/2 
f 48/3/2 47/5/2 41/5/2 
f 43/3/6 52/10/6 49/10/6 
f 49/10/6 48/3/6 43/3/6 
f 52/10/1 45/11/1 50/11/1 
f 50/11/1 49/10/1 52/10/1 
f 45/11/4 41/5/4 47/5/4 
f 47/5/4 50/11/4 45/11/4 
f 53/5/2 54/3/2 58/3/2 
f 58/3/2 57/5/2 53/5/2 
f 54/3/3 62/10/3 59/10/3 
f 59/10/3 58/3/3 54/3/3 
f 62/10/1 56/11/1 60/11/1 
f 60/11/1 59/10/1 62/10/1 
f 56/11/5 53/5/5 57/5/5 
f 57/5/5 60/11/5 56/11/5 
f 63/5/2 64/3/2 68/3/2 
f 68/3/2 67/5/2 63/5/2 
f 64/3/4 72/10/4 69/10/4 
f 69/10/4 68/3/4 64/3/4 
f 72/10/1 66/11/1 70/11/1 
f 70/11/1 69/10/1 72/10/1 
f 66/11/6 63/5/6 67/5/6 
f 67/5/6 70/11/6 66/11/6 
f 73/5/2 74/3/2 77/3/2 
f 77/3/2 76/5/2 73/5/2 
f 74/3/5 80/10/5 78/10/5 
f 78/10/5 77/3/5 74/3/5 
f 80/10/1 75/11/1 79/11/1 
f 79/11/1 78/10/1 80/10/1 
f 75/11/3 73/5/3 76/5/3 
f 76/5/3 79/11/3 75/11/3 
# 156 faces

